# xmcd
#
# Track frame offsets: 
#        150
#        13757
#        27205
#        40535
#        53892
#        66132
#        83325
#        96905
#        112450
#        125530
#        136637
#        150112
#
# Disc length: 2171 seconds
#
# Revision: 4
# Processed by: cddbd v1.5.2PL0 Copyright (c) Steve Scherf et al.
# Submitted via: ExactAudioCopy v1.0b1
#
DISCID=8c08790c
DTITLE=Jackson 5 - ABC
DYEAR=1970
DGENRE=R&B
TTITLE0=The Love You Save
TTITLE1=One More Chance
TTITLE2=ABC
TTITLE3=2-4-6-8
TTITLE4=(Come 'Round Here) I'm The One You Need
TTITLE5=Don't Know Why I Love You
TTITLE6=Never Had A Dream Come True
TTITLE7=True Love Can Be Beautiful
TTITLE8=La La (Means I Love You)
TTITLE9=I'll Bet You
TTITLE10=I Found That Girl
TTITLE11=The Young Folks
EXTD=
EXTT0=
EXTT1=
EXTT2=
EXTT3=
EXTT4=
EXTT5=
EXTT6=
EXTT7=
EXTT8=
EXTT9=
EXTT10=
EXTT11=
PLAYORDER=
